<mxfile host="65bd71144e">
    <diagram name="System Architecture" id="architecture-overview">
        <mxGraphModel dx="1242" dy="445" grid="1" gridSize="10" guides="1" tooltips="1" connect="1" arrows="1" fold="1" page="1" pageScale="1" pageWidth="1654" pageHeight="1169" math="0" shadow="0">
            <root>
                <mxCell id="0"/>
                <mxCell id="1" parent="0"/>
                <mxCell id="title" value="ApesInSuits Investment Research Platform - System Architecture" style="text;html=1;strokeColor=none;fillColor=none;align=center;verticalAlign=middle;whiteSpace=wrap;rounded=0;fontSize=18;fontStyle=1" parent="1" vertex="1">
                    <mxGeometry x="527" y="20" width="600" height="30" as="geometry"/>
                </mxCell>
                <mxCell id="frontend-container" value="" style="rounded=1;whiteSpace=wrap;html=1;fillColor=#E1F5FE;strokeColor=#01579B;strokeWidth=2;" parent="1" vertex="1">
                    <mxGeometry x="80" y="60" width="1480" height="150" as="geometry"/>
                </mxCell>
                <mxCell id="frontend-title" value="Frontend Layer" style="text;html=1;strokeColor=none;fillColor=none;align=left;verticalAlign=top;whiteSpace=wrap;rounded=0;fontSize=14;fontStyle=1" parent="1" vertex="1">
                    <mxGeometry x="100" y="70" width="120" height="20" as="geometry"/>
                </mxCell>
                <mxCell id="angular-ui" value="Angular 20 + Tailwind CSS&#xa;&#xa;Investment Dashboard&#xa;Real-time Charts&#xa;Portfolio Management&#xa;Chat Interface" style="rounded=1;whiteSpace=wrap;html=1;fillColor=#FFF3E0;strokeColor=#E65100;strokeWidth=2;" parent="1" vertex="1">
                    <mxGeometry x="120" y="100" width="200" height="100" as="geometry"/>
                </mxCell>
                <mxCell id="typescript-interfaces" value="Shared TypeScript Types&#xa;&#xa;Data Models&#xa;API Interfaces&#xa;Configuration Types" style="rounded=1;whiteSpace=wrap;html=1;fillColor=#F3E5F5;strokeColor=#4A148C;strokeWidth=2;" parent="1" vertex="1">
                    <mxGeometry x="360" y="100" width="180" height="100" as="geometry"/>
                </mxCell>
                <mxCell id="websocket" value="WebSocket Connection&#xa;&#xa;Real-time Updates&#xa;Live Market Data&#xa;Agent Communications" style="rounded=1;whiteSpace=wrap;html=1;fillColor=#E8F5E8;strokeColor=#2E7D32;strokeWidth=2;" parent="1" vertex="1">
                    <mxGeometry x="580" y="100" width="180" height="100" as="geometry"/>
                </mxCell>
                <mxCell id="api-gateway" value="API Gateway&#xa;&#xa;Request Routing&#xa;Authentication&#xa;Rate Limiting&#xa;CORS Handling" style="rounded=1;whiteSpace=wrap;html=1;fillColor=#FFF8E1;strokeColor=#F57F17;strokeWidth=2;" parent="1" vertex="1">
                    <mxGeometry x="800" y="100" width="160" height="100" as="geometry"/>
                </mxCell>
                <mxCell id="backend-container" value="" style="rounded=1;whiteSpace=wrap;html=1;fillColor=#E8F5E8;strokeColor=#2E7D32;strokeWidth=2;" parent="1" vertex="1">
                    <mxGeometry x="80" y="230" width="1480" height="180" as="geometry"/>
                </mxCell>
                <mxCell id="backend-title" value="Backend Services Layer" style="text;html=1;strokeColor=none;fillColor=none;align=left;verticalAlign=top;whiteSpace=wrap;rounded=0;fontSize=14;fontStyle=1" parent="1" vertex="1">
                    <mxGeometry x="100" y="240" width="250" height="20" as="geometry"/>
                </mxCell>
                <mxCell id="mcp-server" value="Python MCP Server&#xa;FastAPI + LangChain&#xa;&#xa;Tool Implementations&#xa;Request Processing&#xa;Response Formatting&#xa;Error Handling" style="rounded=1;whiteSpace=wrap;html=1;fillColor=#FFF3E0;strokeColor=#E65100;strokeWidth=2;" parent="1" vertex="1">
                    <mxGeometry x="120" y="280" width="160" height="120" as="geometry"/>
                </mxCell>
                <mxCell id="config-mgmt" value="Configuration Manager&#xa;&#xa;Environment Variables&#xa;System Prompts&#xa;Temperature Settings&#xa;API Endpoints" style="rounded=1;whiteSpace=wrap;html=1;fillColor=#F3E5F5;strokeColor=#4A148C;strokeWidth=2;" parent="1" vertex="1">
                    <mxGeometry x="320" y="275" width="160" height="125" as="geometry"/>
                </mxCell>
                <mxCell id="financial-tools" value="Financial Tools&#xa;&#xa;Price History&#xa;Company Overview&#xa;News Analysis&#xa;SEC Filings&#xa;Portfolio Analysis" style="rounded=1;whiteSpace=wrap;html=1;fillColor=#E1F5FE;strokeColor=#01579B;strokeWidth=2;" parent="1" vertex="1">
                    <mxGeometry x="510" y="270" width="170" height="130" as="geometry"/>
                </mxCell>
                <mxCell id="agents-container" value="" style="rounded=1;whiteSpace=wrap;html=1;fillColor=#F3E5F5;strokeColor=#4A148C;strokeWidth=2;" parent="1" vertex="1">
                    <mxGeometry x="80" y="440" width="1480" height="200" as="geometry"/>
                </mxCell>
                <mxCell id="agents-title" value="Multi-Agent AI System" style="text;html=1;strokeColor=none;fillColor=none;align=left;verticalAlign=top;whiteSpace=wrap;rounded=0;fontSize=14;fontStyle=1" parent="1" vertex="1">
                    <mxGeometry x="100" y="450" width="160" height="20" as="geometry"/>
                </mxCell>
                <mxCell id="base-agent" value="BaseAgent&#xa;&#xa;LLM Integration&#xa;Memory Management&#xa;Message Routing&#xa;Context Handling" style="rounded=1;whiteSpace=wrap;html=1;fillColor=#FFFFFF;strokeColor=#4A148C;strokeWidth=2;" parent="1" vertex="1">
                    <mxGeometry x="120" y="490" width="130" height="110" as="geometry"/>
                </mxCell>
                <mxCell id="planner-agent" value="PlannerAgent&#xa;&#xa;Research Planning&#xa;Task Coordination&#xa;Team Management&#xa;Strategy Design" style="rounded=1;whiteSpace=wrap;html=1;fillColor=#E3F2FD;strokeColor=#0277BD;strokeWidth=2;" parent="1" vertex="1">
                    <mxGeometry x="280" y="490" width="140" height="110" as="geometry"/>
                </mxCell>
                <mxCell id="stock-analyzer" value="StockAnalyzer&#xa;&#xa;Price Analysis&#xa;Technical Indicators&#xa;Volume Patterns&#xa;Risk Assessment" style="rounded=1;whiteSpace=wrap;html=1;fillColor=#E8F5E8;strokeColor=#2E7D32;strokeWidth=2;" parent="1" vertex="1">
                    <mxGeometry x="440" y="490" width="130" height="110" as="geometry"/>
                </mxCell>
                <mxCell id="news-analyzer" value="NewsAnalyzer&#xa;&#xa;Sentiment Analysis&#xa;Market Impact&#xa;Narrative Trends&#xa;Event Correlation" style="rounded=1;whiteSpace=wrap;html=1;fillColor=#FFF8E1;strokeColor=#F57F17;strokeWidth=2;" parent="1" vertex="1">
                    <mxGeometry x="600" y="490" width="130" height="110" as="geometry"/>
                </mxCell>
                <mxCell id="macro-analyzer" value="MacroAnalyzer&#xa;&#xa;Economic Indicators&#xa;Fed Policy&#xa;Market Cycles&#xa;Systemic Risk" style="rounded=1;whiteSpace=wrap;html=1;fillColor=#FFEBEE;strokeColor=#C62828;strokeWidth=2;" parent="1" vertex="1">
                    <mxGeometry x="760" y="490" width="130" height="110" as="geometry"/>
                </mxCell>
                <mxCell id="rag-container" value="" style="rounded=1;whiteSpace=wrap;html=1;fillColor=#FFF8E1;strokeColor=#F57F17;strokeWidth=2;" parent="1" vertex="1">
                    <mxGeometry x="80" y="660" width="1480" height="140" as="geometry"/>
                </mxCell>
                <mxCell id="rag-title" value="RAG (Retrieval-Augmented Generation) System" style="text;html=1;strokeColor=none;fillColor=none;align=left;verticalAlign=top;whiteSpace=wrap;rounded=0;fontSize=14;fontStyle=1" parent="1" vertex="1">
                    <mxGeometry x="100" y="680" width="460" height="20" as="geometry"/>
                </mxCell>
                <mxCell id="document-processor" value="Document Processor&#xa;&#xa;Text Chunking&#xa;Metadata Extraction&#xa;Content Preprocessing" style="rounded=1;whiteSpace=wrap;html=1;fillColor=#E3F2FD;strokeColor=#0277BD;strokeWidth=2;" parent="1" vertex="1">
                    <mxGeometry x="120" y="710" width="140" height="80" as="geometry"/>
                </mxCell>
                <mxCell id="vector-embeddings" value="Vector Embeddings&#xa;&#xa;Azure OpenAI Embeddings&#xa;Semantic Similarity&#xa;High-Dimensional Vectors" style="rounded=1;whiteSpace=wrap;html=1;fillColor=#E8F5E8;strokeColor=#2E7D32;strokeWidth=2;" parent="1" vertex="1">
                    <mxGeometry x="300" y="710" width="150" height="80" as="geometry"/>
                </mxCell>
                <mxCell id="chromadb" value="ChromaDB&#xa;&#xa;Vector Storage&#xa;Similarity Search&#xa;Metadata Filtering" style="rounded=1;whiteSpace=wrap;html=1;fillColor=#F3E5F5;strokeColor=#4A148C;strokeWidth=2;" parent="1" vertex="1">
                    <mxGeometry x="490" y="710" width="130" height="80" as="geometry"/>
                </mxCell>
                <mxCell id="faiss" value="FAISS Index&#xa;&#xa;Fast Retrieval&#xa;Scalable Search&#xa;Efficient Storage" style="rounded=1;whiteSpace=wrap;html=1;fillColor=#FFEBEE;strokeColor=#C62828;strokeWidth=2;" parent="1" vertex="1">
                    <mxGeometry x="650" y="710" width="130" height="80" as="geometry"/>
                </mxCell>
                <mxCell id="external-container" value="" style="rounded=1;whiteSpace=wrap;html=1;fillColor=#FFEBEE;strokeColor=#C62828;strokeWidth=2;" parent="1" vertex="1">
                    <mxGeometry x="80" y="820" width="1480" height="140" as="geometry"/>
                </mxCell>
                <mxCell id="external-title" value="External Data Providers" style="text;html=1;strokeColor=none;fillColor=none;align=left;verticalAlign=top;whiteSpace=wrap;rounded=0;fontSize=14;fontStyle=1" parent="1" vertex="1">
                    <mxGeometry x="100" y="830" width="180" height="20" as="geometry"/>
                </mxCell>
                <mxCell id="yfinance" value="yFinance&#xa;&#xa;Stock Prices&#xa;Market Data&#xa;Historical Charts" style="rounded=1;whiteSpace=wrap;html=1;fillColor=#E3F2FD;strokeColor=#0277BD;strokeWidth=2;" parent="1" vertex="1">
                    <mxGeometry x="120" y="860" width="120" height="90" as="geometry"/>
                </mxCell>
                <mxCell id="newsapi" value="NewsAPI&#xa;&#xa;Financial News&#xa;Real-time Updates&#xa;Source Filtering" style="rounded=1;whiteSpace=wrap;html=1;fillColor=#E8F5E8;strokeColor=#2E7D32;strokeWidth=2;" parent="1" vertex="1">
                    <mxGeometry x="280" y="860" width="120" height="90" as="geometry"/>
                </mxCell>
                <mxCell id="fred" value="FRED (Federal Reserve)&#xa;&#xa;Economic Indicators&#xa;Monetary Policy&#xa;Market Data" style="rounded=1;whiteSpace=wrap;html=1;fillColor=#F3E5F5;strokeColor=#4A148C;strokeWidth=2;" parent="1" vertex="1">
                    <mxGeometry x="440" y="860" width="140" height="90" as="geometry"/>
                </mxCell>
                <mxCell id="sec-edgar" value="SEC EDGAR&#xa;&#xa;Company Filings&#xa;10-K/10-Q Reports&#xa;Regulatory Data" style="rounded=1;whiteSpace=wrap;html=1;fillColor=#FFF8E1;strokeColor=#F57F17;strokeWidth=2;" parent="1" vertex="1">
                    <mxGeometry x="620" y="860" width="120" height="90" as="geometry"/>
                </mxCell>
                <mxCell id="azure-openai" value="Azure OpenAI&#xa;&#xa;GPT Models&#xa;Embeddings API&#xa;AI Processing" style="rounded=1;whiteSpace=wrap;html=1;fillColor=#E0F2F1;strokeColor=#00695C;strokeWidth=2;" parent="1" vertex="1">
                    <mxGeometry x="780" y="860" width="120" height="80" as="geometry"/>
                </mxCell>
                <mxCell id="flow-1" value="" style="endArrow=classic;html=1;rounded=0;exitX=0.5;exitY=1;entryX=0.5;entryY=0;strokeColor=#1976D2;strokeWidth=3;" parent="1" source="angular-ui" target="mcp-server" edge="1">
                    <mxGeometry width="50" height="50" relative="1" as="geometry">
                        <mxPoint x="220" y="190" as="sourcePoint"/>
                        <mxPoint x="200" y="260" as="targetPoint"/>
                    </mxGeometry>
                </mxCell>
                <mxCell id="flow-2" value="" style="endArrow=classic;html=1;rounded=0;exitX=0.5;exitY=1;entryX=0.5;entryY=0;strokeColor=#1976D2;strokeWidth=3;" parent="1" source="mcp-server" target="planner-agent" edge="1">
                    <mxGeometry width="50" height="50" relative="1" as="geometry">
                        <mxPoint x="200" y="360" as="sourcePoint"/>
                        <mxPoint x="340" y="470" as="targetPoint"/>
                    </mxGeometry>
                </mxCell>
                <mxCell id="flow-3" value="" style="endArrow=classic;html=1;rounded=0;exitX=0.5;exitY=1;entryX=0.5;entryY=0;strokeColor=#1976D2;strokeWidth=3;" parent="1" source="stock-analyzer" target="yfinance" edge="1">
                    <mxGeometry width="50" height="50" relative="1" as="geometry">
                        <mxPoint x="500" y="560" as="sourcePoint"/>
                        <mxPoint x="180" y="850" as="targetPoint"/>
                        <Array as="points">
                            <mxPoint x="500" y="800"/>
                            <mxPoint x="180" y="800"/>
                        </Array>
                    </mxGeometry>
                </mxCell>
                <mxCell id="flow-4" value="" style="endArrow=classic;html=1;rounded=0;exitX=0.5;exitY=1;entryX=0.5;entryY=0;strokeColor=#1976D2;strokeWidth=3;" parent="1" source="news-analyzer" target="newsapi" edge="1">
                    <mxGeometry width="50" height="50" relative="1" as="geometry">
                        <mxPoint x="660" y="560" as="sourcePoint"/>
                        <mxPoint x="340" y="850" as="targetPoint"/>
                        <Array as="points">
                            <mxPoint x="660" y="800"/>
                            <mxPoint x="340" y="800"/>
                        </Array>
                    </mxGeometry>
                </mxCell>
            </root>
        </mxGraphModel>
    </diagram>
</mxfile>